<svg xmlns="http://www.w3.org/2000/svg" xmlns:xlink="http://www.w3.org/1999/xlink" width="500" zoomAndPan="magnify" viewBox="0 0 375 374.999991" height="500" preserveAspectRatio="xMidYMid meet" version="1.0"><defs><clipPath id="41e1b52487"><path d="M 145 68.519531 L 347.988281 68.519531 L 347.988281 306.269531 L 145 306.269531 Z M 145 68.519531 " clip-rule="nonzero"/></clipPath><clipPath id="b8224ae338"><path d="M 26.988281 84 L 264 84 L 264 291 L 26.988281 291 Z M 26.988281 84 " clip-rule="nonzero"/></clipPath></defs><g clip-path="url(#41e1b52487)"><path fill="#259DAF" d="M 293.574219 68.546875 L 199.613281 68.546875 C 169.546875 68.546875 145.1875 92.886719 145.1875 122.917969 L 145.1875 251.875 C 145.1875 281.902344 169.546875 306.242188 199.597656 306.242188 L 293.5625 306.242188 C 323.617188 306.242188 347.976562 281.902344 347.976562 251.875 L 347.976562 122.917969 C 347.988281 92.886719 323.628906 68.546875 293.574219 68.546875 Z M 293.574219 68.546875 " fill-opacity="1" fill-rule="nonzero"/></g><g clip-path="url(#b8224ae338)"><path fill="#000000" d="M 230.09375 105.765625 C 230.09375 117.488281 220.59375 126.980469 208.863281 126.980469 C 197.136719 126.980469 187.636719 117.488281 187.636719 105.765625 C 187.636719 94.042969 197.148438 84.550781 208.863281 84.550781 C 220.59375 84.550781 230.09375 94.042969 230.09375 105.765625 Z M 81.496094 84.550781 C 69.769531 84.550781 60.269531 94.042969 60.269531 105.765625 C 60.269531 117.488281 69.769531 126.980469 81.496094 126.980469 C 93.226562 126.980469 102.726562 117.488281 102.726562 105.765625 C 102.726562 94.042969 93.226562 84.550781 81.496094 84.550781 Z M 263.375 176.929688 C 263.375 169.714844 257.523438 163.855469 250.289062 163.855469 C 243.070312 163.855469 237.203125 169.703125 237.203125 176.929688 C 237.203125 180.378906 238.535156 183.503906 240.714844 185.84375 C 236.207031 234.550781 195.078125 272.816406 145.175781 272.816406 C 95.273438 272.816406 54.144531 234.550781 49.632812 185.84375 C 51.816406 183.503906 53.144531 180.378906 53.144531 176.929688 C 53.144531 169.714844 47.292969 163.855469 40.058594 163.855469 C 32.839844 163.867188 26.988281 169.714844 26.988281 176.929688 C 26.988281 181.226562 29.070312 185.042969 32.273438 187.433594 C 37.597656 245.015625 86.203125 290.25 145.1875 290.25 C 204.171875 290.25 252.777344 245.015625 258.101562 187.433594 C 261.304688 185.042969 263.375 181.238281 263.375 176.929688 Z M 263.375 176.929688 " fill-opacity="1" fill-rule="nonzero"/></g></svg>